# File created by Blade
# Date/Time:  Wed Jan 21 17:10:37 2015
# Frame Rate: 120.000 fps
#------------------------------------------------------
:FULLY-SPECIFIED
:DEGREES
521
root 19.942578 3.480661 -11.818303 -236.028059 4.096166 -188.694442
Spine 63.385636 8.719905 -9.480928
Head -6.303953 6.537789 0.285154
LeftShoulder 13.802837 -33.242542 -11.173847
LeftArm 18.882038 20.697412 -80.318336
LeftForeArm -64.959644 0.000000 57.467195
LeftHand 2.200502 -0.000000 -17.082387
LeftHandThumb1 -26.253704 0.000000 33.147579
RightShoulder 13.834390 11.280620 -29.232824
RightArm 60.812299 -3.009393 11.964411
RightForeArm 25.623605 -0.000000 80.388036
RightHand -14.703406 -0.000000 6.557880
RightHandThumb1 -24.326973 -0.000000 -32.862282
LeftUpLeg -34.088353 34.919252 -3.782132
LeftLeg -2.448337 -0.000000 0.000000
LeftFoot 17.322321 37.712358 -1.628351
LeftToeBase 18.310116 -0.000000 -0.000000
RightUpLeg -112.671327 4.984890 66.074461
RightLeg 112.568569 -0.000000 -0.000000
RightFoot 22.995750 -37.440220 0.097853
RightToeBase 23.695351 -0.000000 -0.000000
522
root 19.931638 3.478202 -11.818767 -235.942553 4.076587 -188.685052
Spine 63.423174 8.751544 -9.380543
Head -6.415743 6.357214 0.497125
LeftShoulder 13.808370 -33.057316 -11.184668
LeftArm 19.037792 21.072177 -80.060792
LeftForeArm -64.497317 0.000000 60.078786
LeftHand 1.957607 -0.000000 -17.323612
LeftHandThumb1 -26.253704 0.000000 33.147579
RightShoulder 13.574225 11.301879 -29.311651
RightArm 60.557940 -2.715862 11.622078
RightForeArm 25.661808 -0.000000 82.037796
RightHand -15.022085 0.000000 5.828421
RightHandThumb1 -24.326973 -0.000000 -32.862282
LeftUpLeg -34.152808 34.760561 -3.802987
LeftLeg -2.437834 -0.000000 0.000000
LeftFoot 17.365635 37.547608 -1.623046
LeftToeBase 18.391823 -0.000000 -0.000000
RightUpLeg -112.862246 5.512240 66.566871
RightLeg 112.776675 -0.000000 -0.000000
RightFoot 23.027226 -37.162792 0.476923
RightToeBase 23.849392 -0.000000 -0.000000
523
root 19.928096 3.480764 -11.820564 -235.908724 4.058368 -188.649010
Spine 63.533231 8.798903 -9.240929
Head -6.566989 6.145658 0.719397
LeftShoulder 13.888268 -32.966702 -11.224546
LeftArm 19.117331 21.532741 -79.797386
LeftForeArm -63.974380 -0.000000 62.694740
LeftHand 1.580457 -0.000000 -17.054629
LeftHandThumb1 -26.253704 0.000000 33.147579
RightShoulder 13.266536 11.292120 -29.407531
RightArm 60.375061 -2.397138 11.337979
RightForeArm 25.585677 -0.000000 83.610437
RightHand -15.484572 0.000000 5.089328
RightHandThumb1 -24.326973 -0.000000 -32.862282
LeftUpLeg -34.144493 34.584297 -3.745644
LeftLeg -2.402617 -0.000000 0.000000
LeftFoot 17.371640 37.370141 -1.619230
LeftToeBase 18.460627 -0.000000 -0.000000
RightUpLeg -113.012173 5.959207 67.101299
RightLeg 113.024860 -0.000000 -0.000000
RightFoot 23.100796 -36.762862 0.657078
RightToeBase 23.694796 -0.000000 -0.000000
524
root 19.922136 3.479059 -11.822957 -235.838101 4.001415 -188.609029
Spine 63.591838 8.817493 -9.135674
Head -6.687195 5.906376 0.934549
LeftShoulder 13.988742 -32.868667 -11.289852
LeftArm 19.233684 21.928324 -79.526326
LeftForeArm -63.417502 -0.000000 65.388332
LeftHand 1.327207 -0.000000 -16.674285
LeftHandThumb1 -26.253704 0.000000 33.147579
RightShoulder 12.987496 11.287228 -29.521862
RightArm 60.179955 -2.126086 11.066972
RightForeArm 25.464086 -0.000000 85.144170
RightHand -15.766776 -0.000000 4.401323
RightHandThumb1 -24.326973 -0.000000 -32.862282
LeftUpLeg -34.194688 34.396111 -3.763904
LeftLeg -2.377140 -0.000000 0.000000
LeftFoot 17.389715 37.192991 -1.604910
LeftToeBase 18.592166 -0.000000 -0.000000
RightUpLeg -113.209677 6.456918 67.564007
RightLeg 113.215111 -0.000000 -0.000000
RightFoot 23.162127 -36.695756 1.124571
RightToeBase 23.774077 -0.000000 -0.000000
525
root 19.914131 3.473207 -11.822158 -235.739044 3.968794 -188.554855
Spine 63.628358 8.801188 -9.025580
Head -6.819450 5.768491 1.109870
LeftShoulder 14.101485 -32.752806 -11.404009
LeftArm 19.413320 22.258200 -79.233131
LeftForeArm -63.598088 0.000000 67.877776
LeftHand 1.196039 -0.000000 -16.556880
LeftHandThumb1 -26.253704 0.000000 33.147579
RightShoulder 12.695144 11.290264 -29.662605
RightArm 60.049425 -1.791632 10.871376
RightForeArm 25.475023 -0.000000 86.612657
RightHand -16.231360 0.000000 4.061844
RightHandThumb1 -24.326973 -0.000000 -32.862282
LeftUpLeg -34.304674 34.213647 -3.791775
LeftLeg -2.341515 -0.000000 0.000000
LeftFoot 17.424675 37.043121 -1.571881
LeftToeBase 18.618528 -0.000000 -0.000000
RightUpLeg -113.364850 6.989742 68.075990
RightLeg 113.468679 -0.000000 -0.000000
RightFoot 23.195490 -36.531149 1.075496
RightToeBase 23.400824 -0.000000 -0.000000
526
root 19.907852 3.467434 -11.820118 -235.641859 3.943463 -188.509988
Spine 63.665043 8.803399 -8.928327
Head -6.963304 5.646018 1.283965
LeftShoulder 14.272685 -32.703844 -11.536587
LeftArm 19.540083 22.781961 -78.865262
LeftForeArm -65.281559 -0.000000 69.845823
LeftHand 1.051090 -0.000000 -17.544357
LeftHandThumb1 -26.253704 0.000000 33.147579
RightShoulder 12.395854 11.351664 -29.808368
RightArm 59.920624 -1.500902 10.772864
RightForeArm 25.387073 0.000000 88.041697
RightHand -16.471095 -0.000000 3.356442
RightHandThumb1 -24.326973 -0.000000 -32.862282
LeftUpLeg -34.414600 34.048857 -3.820081
LeftLeg -2.302202 -0.000000 0.000000
LeftFoot 17.409630 36.893333 -1.622369
LeftToeBase 18.575308 -0.000000 -0.000000
RightUpLeg -113.496528 7.536432 68.612553
RightLeg 113.685017 -0.000000 -0.000000
RightFoot 23.378522 -36.561346 1.034788
RightToeBase 23.628634 -0.000000 -0.000000
527
root 19.904302 3.462490 -11.817548 -235.554606 3.930452 -188.460462
Spine 63.696658 8.783949 -8.890225
Head -7.074667 5.557893 1.469435
LeftShoulder 14.432724 -32.701138 -11.671499
LeftArm 19.728585 23.509190 -78.370598
LeftForeArm -68.328053 -0.000000 70.993841
LeftHand 0.695685 -0.000000 -19.579042
LeftHandThumb1 -26.253704 0.000000 33.147579
RightShoulder 12.152209 11.446841 -29.956153
RightArm 59.801235 -1.121554 11.023196
RightForeArm 24.800451 -0.000000 89.519164
RightHand -16.838505 -0.000000 3.357651
RightHandThumb1 -24.326973 -0.000000 -32.862282
LeftUpLeg -34.515225 33.913415 -3.836098
LeftLeg -2.271344 -0.000000 0.000000
LeftFoot 17.415000 36.757700 -1.693697
LeftToeBase 18.548372 -0.000000 -0.000000
RightUpLeg -113.589046 8.082742 69.207893
RightLeg 113.881339 -0.000000 -0.000000
RightFoot 23.954021 -36.549073 0.267791
RightToeBase 24.003024 -0.000000 -0.000000
528
root 19.902943 3.461224 -11.815442 -235.501215 3.918328 -188.413704
Spine 63.771315 8.770063 -8.870794
Head -7.221161 5.534669 1.664902
LeftShoulder 14.687155 -32.849579 -11.833104
LeftArm 19.545404 24.017333 -78.069492
LeftForeArm -70.731443 -0.000000 72.229003
LeftHand 0.289035 0.000000 -20.703016
LeftHandThumb1 -26.253704 0.000000 33.147579
RightShoulder 11.912973 11.589640 -30.030695
RightArm 59.732304 -0.760210 10.966019
RightForeArm 24.602409 -0.000000 90.946993
RightHand -17.219634 0.000000 2.994136
RightHandThumb1 -24.326973 -0.000000 -32.862282
LeftUpLeg -34.563343 33.794139 -3.825332
LeftLeg -2.250720 -0.000000 0.000000
LeftFoot 17.439908 36.618592 -1.676067
LeftToeBase 18.610578 -0.000000 -0.000000
RightUpLeg -113.649055 8.599704 69.851747
RightLeg 114.004668 -0.000000 -0.000000
RightFoot 24.831044 -36.738223 -0.670532
RightToeBase 24.018584 -0.000000 -0.000000
